<svg width="71" height="71" viewBox="0 0 71 71" fill="none" xmlns="http://www.w3.org/2000/svg">
<path fill-rule="evenodd" clip-rule="evenodd" d="M4 0C1.79086 0 0 1.79086 0 4V51C0 53.2091 1.79086 55 4 55H38V67C38 69.2091 39.7909 71 42 71H67C69.2091 71 71 69.2091 71 67V42C71 39.7909 69.2091 38 67 38H55V4C55 1.79086 53.2091 0 51 0H4ZM55 38H42C39.7909 38 38 39.7909 38 42V55H51C53.2091 55 55 53.2091 55 51V38Z" fill="#013BE3"/>
<line x1="4.77547" y1="5.06854" x2="68.0684" y2="68.3614" stroke="#030717" stroke-linecap="round" stroke-dasharray="3 3"/>
</svg>
