<svg width="64" height="73" viewBox="0 0 64 73" fill="none" xmlns="http://www.w3.org/2000/svg">
<circle cx="36" cy="24.699" r="21.5" stroke="#030717" stroke-dasharray="2 2"/>
<g style="mix-blend-mode:multiply">
<path fill-rule="evenodd" clip-rule="evenodd" d="M17.7823 48.4086C27.6031 48.4086 35.5645 40.4472 35.5645 30.6264C35.5645 28.3045 35.1195 26.0866 34.3102 24.0532C34.7256 24.0322 35.1438 24.0215 35.5645 24.0215C49.0331 24.0215 59.9516 34.94 59.9516 48.4086C59.9516 61.8773 49.0331 72.7957 35.5645 72.7957C22.0959 72.7957 11.1774 61.8773 11.1774 48.4086C11.1774 47.9879 11.1881 47.5697 11.2091 47.1543C13.2425 47.9636 15.4604 48.4086 17.7823 48.4086ZM11.2091 47.1543C4.64191 44.5402 0 38.1254 0 30.6264C0 20.8055 7.96139 12.8441 17.7823 12.8441C25.2813 12.8441 31.6961 17.486 34.3102 24.0532C21.8399 24.6851 11.8409 34.684 11.2091 47.1543Z" fill="#0141FF"/>
</g>
<circle cx="54" cy="10.699" r="10" fill="#030717"/>
</svg>
