<svg width="102" height="64" viewBox="0 0 102 64" fill="none" xmlns="http://www.w3.org/2000/svg">
<rect x="1" y="10" width="100" height="39" stroke="black" stroke-linecap="round" stroke-linejoin="round" stroke-dasharray="5 5"/>
<path fill-rule="evenodd" clip-rule="evenodd" d="M65.5005 61.5114C70.5931 58.4516 74.0005 52.8737 74.0005 46.5C74.0005 40.1263 70.5931 34.5484 65.5005 31.4886C68.1302 29.9086 71.2092 29 74.5005 29C84.1655 29 92.0005 36.835 92.0005 46.5C92.0005 56.165 84.1655 64 74.5005 64C71.2092 64 68.1302 63.0914 65.5005 61.5114ZM65.5005 61.5114C62.8708 63.0914 59.7917 64 56.5005 64C46.8355 64 39.0005 56.165 39.0005 46.5C39.0005 36.835 46.8355 29 56.5005 29C59.7917 29 62.8708 29.9086 65.5005 31.4886C60.4079 34.5484 57.0005 40.1263 57.0005 46.5C57.0005 52.8737 60.4079 58.4516 65.5005 61.5114Z" fill="#0141FF"/>
<rect x="13.5" y="31.5" width="16" height="30" rx="7.5" stroke="#030717" stroke-width="5"/>
<rect x="11.0005" width="21" height="21" rx="4" fill="#013BE3"/>
<rect x="92.0005" width="21" height="53" rx="4" transform="rotate(90 92.0005 0)" fill="#030717"/>
</svg>
