<svg width="14" height="14" viewBox="0 0 14 14" fill="none" xmlns="http://www.w3.org/2000/svg">
<path d="M1.53034 0.46967C1.23745 0.176777 0.762572 0.176777 0.469679 0.46967C0.176786 0.762563 0.176785 1.23744 0.469679 1.53033L5.93935 7L0.46967 12.4697C0.176777 12.7626 0.176777 13.2374 0.46967 13.5303C0.762563 13.8232 1.23744 13.8232 1.53033 13.5303L7.00001 8.06066L12.4697 13.5303C12.7626 13.8232 13.2375 13.8232 13.5303 13.5303C13.8232 13.2374 13.8232 12.7626 13.5303 12.4697L8.06067 7L13.5303 1.53034C13.8232 1.23745 13.8232 0.762571 13.5303 0.469678C13.2374 0.176785 12.7626 0.176785 12.4697 0.469678L7.00001 5.93934L1.53034 0.46967Z" fill="white"/>
</svg>
