<svg width="24" height="24" viewBox="0 0 24 24" fill="none" xmlns="http://www.w3.org/2000/svg">
<path d="M13.1667 20H10.8347C10.3611 20 9.94832 20.338 9.98802 20.81C10.0506 21.5534 10.4012 22.5925 11.8049 22.9553C11.9327 22.9883 12.0687 22.9883 12.1965 22.9553C13.6003 22.5925 13.9509 21.5534 14.0134 20.81C14.0531 20.338 13.6404 20 13.1667 20Z" fill="#030717"/>
<path fill-rule="evenodd" clip-rule="evenodd" d="M13.3741 19.0014C14.2272 19.0014 15.018 18.6416 15.5512 18.0356L18.4453 19.965C19.1099 20.408 20 19.9316 20 19.1329V15.0014C20 13.4021 18.7485 12.095 17.1713 12.0062C17.3483 10.5099 17.3536 9.06246 16.9999 8.00142C16.2502 5.75208 13.8139 3.22165 12.6416 2.09616C12.2802 1.74919 11.7197 1.7492 11.3583 2.09617C10.186 3.22167 7.7498 5.75209 6.99995 8.00142C6.64305 9.072 6.64483 10.5168 6.81925 12.0068C5.24655 12.1002 4 13.4053 4 15.0014V19.1329C4 19.9316 4.89015 20.408 5.5547 19.965L8.4438 18.0389C8.9765 18.6431 9.76597 19.0014 10.6172 19.0014H13.3741ZM13.5051 17.4959C14.0919 17.4461 14.5444 17.0643 14.6851 16.5661C15.0267 15.3566 15.4181 13.767 15.6317 12.2203C15.8531 10.6162 15.8478 9.28817 15.577 8.47576C15.2874 7.60715 14.6252 6.57905 13.8111 5.56828C13.1866 4.793 12.5262 4.09271 12 3.56721C11.4738 4.09271 10.8134 4.79301 10.1889 5.56829C9.37477 6.57906 8.71253 7.60717 8.42296 8.47581C8.14632 9.30564 8.14039 10.6407 8.36132 12.241C8.57465 13.7861 8.96734 15.3692 9.31038 16.5726C9.37921 16.8141 9.52177 17.028 9.71774 17.1896C9.90953 17.3477 10.1524 17.4556 10.4275 17.4898C10.4892 17.4975 10.5525 17.5014 10.6172 17.5014H13.3741C13.4184 17.5014 13.4621 17.4996 13.5051 17.4959ZM16.9448 13.5014C16.737 14.6472 16.4645 15.7556 16.2123 16.6735L18.5 18.1986V15.0014C18.5 14.173 17.8284 13.5014 17 13.5014H16.9448ZM7.7817 16.6775C7.5273 15.7594 7.25285 14.6498 7.04466 13.5014C6.21106 13.5014 5.5 14.1489 5.5 15.0014V18.1986L7.7817 16.6775Z" fill="#030717"/>
<path fill-rule="evenodd" clip-rule="evenodd" d="M12 10.5C12.2761 10.5 12.5 10.2761 12.5 10C12.5 9.72386 12.2761 9.5 12 9.5C11.7239 9.5 11.5 9.72386 11.5 10C11.5 10.2761 11.7239 10.5 12 10.5ZM12 12C13.1046 12 14 11.1046 14 10C14 8.89543 13.1046 8 12 8C10.8954 8 10 8.89543 10 10C10 11.1046 10.8954 12 12 12Z" fill="#030717"/>
</svg>
