<svg width="24" height="24" viewBox="0 0 24 24" fill="none" xmlns="http://www.w3.org/2000/svg">
<path fill-rule="evenodd" clip-rule="evenodd" d="M4.20645 4.31476L8.14074 3.23564C8.70147 3.08184 9.29483 3.0943 9.84861 3.27151L14.1514 4.6484C14.7052 4.82561 15.2985 4.83808 15.8593 4.68427L18.8387 3.86705C20.4299 3.43062 22 4.62807 22 6.27801V16.792C22 18.1432 21.0967 19.3277 19.7936 19.6852L15.8593 20.7643C15.2985 20.9181 14.7052 20.9056 14.1514 20.7284L9.84861 19.3515C9.29483 19.1743 8.70147 19.1618 8.14073 19.3156L5.16129 20.1329C3.57012 20.5693 2 19.3718 2 17.7219V7.2079C2 5.85667 2.90334 4.67218 4.20645 4.31476ZM4.60323 5.76133L8.29291 4.7493C8.26512 4.82768 8.25 4.91205 8.25 4.99995V17.7611C8.07996 17.7873 7.91099 17.8233 7.74396 17.8691L4.76452 18.6863C4.12805 18.8609 3.5 18.3819 3.5 17.7219V7.2079C3.5 6.53229 3.95167 5.94004 4.60323 5.76133ZM10.3058 17.9229C10.123 17.8644 9.93736 17.8179 9.75 17.7833V4.99995C9.75 4.93319 9.74128 4.86847 9.72491 4.80686L13.6942 6.07704C13.877 6.13553 14.0626 6.18205 14.25 6.21658V19C14.25 19.0667 14.2587 19.1314 14.2751 19.1931L10.3058 17.9229ZM15.7071 19.2506L19.3968 18.2386C20.0483 18.0599 20.5 17.4676 20.5 16.792V6.27801C20.5 5.61803 19.872 5.13905 19.2355 5.31363L16.256 6.13085C16.089 6.17666 15.92 6.21264 15.75 6.2388V19C15.75 19.0879 15.7349 19.1722 15.7071 19.2506Z" fill="#030717"/>
</svg>
