<svg width="22" height="18" viewBox="0 0 22 18" fill="none" xmlns="http://www.w3.org/2000/svg">
<path d="M7.99945 17.8008C5.59945 17.8008 3.19945 17.2008 1.19945 16.2008C0.899451 16.1008 0.69945 15.7008 0.79945 15.4008C0.89945 15.1008 1.09945 14.8008 1.39945 14.8008C3.29945 14.6008 4.69945 14.2008 5.99945 13.5008C3.09945 11.3008 1.59945 7.30078 1.79945 2.00078C1.79945 1.70078 1.99945 1.40078 2.29945 1.30078C2.59945 1.20078 2.89945 1.30078 3.09945 1.50078C5.19945 3.60078 7.79945 5.80078 10.1995 5.50078C10.0995 4.60078 10.1995 2.90078 11.1995 1.70078C11.9995 0.800781 13.0995 0.300781 14.5995 0.300781C16.2995 0.300781 17.3995 1.40078 17.8995 2.20078L20.2994 1.40078C20.5994 1.30078 20.8995 1.40078 21.0995 1.70078C21.2995 2.00078 21.2995 2.30078 21.0995 2.60078L19.2994 5.30078C19.4995 6.40078 19.7995 10.0008 17.0995 13.6008C14.7995 16.6008 11.3995 17.8008 7.99945 17.8008ZM4.19945 15.8008C8.29945 17.0008 12.9995 16.5008 15.8995 12.6008C18.5995 9.00078 17.7994 5.40078 17.7994 5.20078C17.7994 5.00078 17.7994 4.80078 17.8995 4.60078L18.6995 3.40078L17.7994 3.70078C17.3995 3.80078 17.0995 3.70078 16.8995 3.30078C16.8995 3.30078 16.0995 1.70078 14.5995 1.70078C13.5995 1.70078 12.8995 2.00078 12.3995 2.50078C11.3995 3.70078 11.7995 5.70078 11.7995 5.80078C11.8995 6.20078 11.6995 6.50078 11.2995 6.70078C8.49945 7.60078 5.69945 5.80078 3.29945 3.70078C3.49945 7.10078 4.49945 11.0008 7.89945 12.8008C8.09945 12.9008 8.29945 13.2008 8.29945 13.4008C8.29945 13.7008 8.19945 13.9008 7.89945 14.1008C6.69945 14.9008 5.49945 15.4008 4.19945 15.8008Z" fill="#030717"/>
</svg>
